<?xml version="1.0" encoding="utf-8"?>
<!-- Generator: Adobe Illustrator 22.0.1, SVG Export Plug-In . SVG Version: 6.00 Build 0)  -->
<svg version="1.1" id="Layer_1" xmlns="http://www.w3.org/2000/svg" xmlns:xlink="http://www.w3.org/1999/xlink" x="0px" y="0px"
	 viewBox="0 0 19.9 19.6" style="enable-background:new 0 0 19.9 19.6;" xml:space="preserve">
<style type="text/css">
	.st0{fill:#FFFFFF;stroke:#000000;stroke-miterlimit:10;}
	.st1{fill:#FFFFFF;stroke:#000000;stroke-width:0.25;stroke-miterlimit:10;}
	.st2{fill:none;}
	.st3{font-family:'Bauhaus93';}
	.st4{font-size:11px;}
</style>
<path class="st0" d="M19.4,19.3H0.3c-0.1,0-0.1-0.1-0.1-0.1V0c0-0.1,0.1-0.1,0.1-0.1h19.2c0.1,0,0.1,0.1,0.1,0.1v19.2
	C19.6,19.2,19.5,19.3,19.4,19.3z"/>
<rect x="1" y="3.4" class="st1" width="17.7" height="12.2"/>
<rect x="1.8" y="1.9" class="st2" width="15.9" height="7.1"/>
<rect x="2.7" y="5.8" class="st2" width="14.6" height="8"/>
<text transform="matrix(1 0 0 1 2.7325 13.1086)" class="st3 st4">TW</text>
<rect x="2.5" y="13.8" class="st2" width="14.9" height="3.3"/>
<rect x="2.2" y="13.3" class="st2" width="15.5" height="4.3"/>
<rect x="1" y="0.6" class="st1" width="17.7" height="2.2"/>
<rect x="1" y="16.2" class="st1" width="17.7" height="2.2"/>
</svg>
