<?xml version="1.0" encoding="utf-8"?>
<!-- Generator: Adobe Illustrator 22.0.1, SVG Export Plug-In . SVG Version: 6.00 Build 0)  -->
<svg version="1.1" id="Calque_1" xmlns="http://www.w3.org/2000/svg" xmlns:xlink="http://www.w3.org/1999/xlink" x="0px" y="0px"
	 viewBox="0 0 211.8 162.3" style="enable-background:new 0 0 211.8 162.3;" xml:space="preserve">
<style type="text/css">
	.st0{fill:#56667A;}
</style>
<g>
	<path class="st0" d="M107.6,10.5h-0.2c-10,0.2-20,0.4-30,0.5c-5.5,0.1-11,0.2-16.5,0.3c-4,0.1-8.1,0.1-12.1,0.2
		c-8.2,0.2-16.6,0.3-24.9,0.4c-1.1,0-1.3,0.2-1.3,0.2s-0.2,0.2-0.1,1.4c0.2,4.7,0.4,9.4,0.5,14.1c0.1,4.5,0.3,9,0.5,13.5v0.6
		c0.2,4.3,0.3,8,3.9,10.8c2.2,1.7,3.6,5.2,3.6,7.7c0.1,2.7,1.3,4.5,2.9,6.7c1.1,1.5,2.2,3.4,1.8,5.9c-0.1,0.9,0.2,1.7,1.1,2.9
		c1.3,1.7,1.9,3.5,2.5,5.5c2.4,8.1-0.4,15.3-3.4,21.3c-1.7,3.3-1.4,6.7-1.1,10l0.1,0.7c0.6,6.8-1,12.1-4.8,16.5
		c-1.1,1.3-1.2,1.9-0.3,3.1H30c1.4-0.9,2.8-0.7,4-0.7c3.4-0.9,7-1.8,10.8-2.2c1.6-0.8,3.2-1.2,5-1.2c3.1,0,5.8,1.2,8.9,2.7
		c1,0.5,2,0.9,3,1.4l1.1,0.5l7.7,1.3l5.2,1.1l8.9,0.2c-0.5-0.5-1-1.2-1.1-2c-0.1-1.7,1.5-3,2.3-3.6c0.6-0.5,1.2-1,1.8-1.5
		c1-0.8,2-1.6,3.1-2.4c2.1-1.3,3.6-1.3,4.7-0.3c0.5,0.5,0.8,1.3,0.9,2.2c0.3,0.1,0.8,0.1,1.3,0c0.7,0,1.5,0,2.1,0.1h0.1
		c0.6-0.1,1.2-0.1,1.8-0.1c0.5,0,2,0,3,1.1c0.8,0.8,1.1,2.1,1,3.8c0,0.1,0.4,0.5,0.6,0.8c0.3,0.3,0.5,0.7,0.7,1l0.6,1
		c2.2,1,3.9,1.3,5.7,1.2c2.5-0.2,4.1,0.8,4.8,2.7h0.2l0.1,0.6c0.3,0.1,0.5,0.4,0.8,0.7l0.5,0.7c2.6,3.8,4.9,7.2,9.6,7.5
		c0.8,0.1,1.3,0.7,1.7,1.1l0.6,0.1l3.5-0.1l3-4.1c1.4-2,3.3-2.4,5.1-1.2l2,0.1c0.8-0.3,1.6-0.5,2.3-0.5c2.6,0,3.6,2.2,4.2,3.7
		c0.2,0.5,0.4,1,0.6,1.3l0,0l2.1-2c0-0.6,0-1.3,0-1.9c0-1.6-0.1-3.2,0.3-4.9c-0.1-1.2,0.1-2.2,0.7-2.9c1-1.3,2.5-1.5,3.7-1.6
		c0.3,0,0.6-0.1,0.9-0.2c0.4-0.1,0.8-0.2,1.1-0.2c2.7,0,3.7,2.5,4.3,4.2l0.2,0.3l7.7,4.1l1.9,0.7c3.1,0.2,5.1,2,5.7,5.1
		c0.3,1.3,0.6,1.8,0.8,1.8c0.1,0,0.7-0.1,2-1c1.5-1.1,3.3-2.4,5.6-2.3c0.2,0,0.3,0,0.3,0s0,0,0-0.1c-0.1-0.1-0.3-0.1-0.4-0.2
		l-0.3-0.1c-2.4-1-5.1-2.1-7.7-3c-4.7-1.5-8.2-4.6-11.3-7.8c-1.8-1.8-2.1-3.6-2-4.7c0.1-1.1,0.6-2.7,2.7-4.1c3-2.1,5.3-4.4,7-7
		c0.1-0.2,0.4-0.7,1-0.9c2.9-1,3.9-2.8,3.5-6.4c-0.2-0.1-0.4-0.3-0.5-0.4c-0.3-0.3-0.5-0.4-0.6-0.5c-3.7,1.8-7,4.4-10.1,7.8
		l-0.2,0.3c-0.9,1-2.1,2.3-3.9,2.3c-0.5,0-1.1-0.1-1.6-0.3c-2.7-1.1-2.9-3.6-3-5.4v-0.2c-0.1-1.2,0.2-2.1,0.5-2.9
		c-1.9,0-3.5,0.5-5,1.4c-1.9,1.2-4,1.7-6,2.2c-0.5,0.1-0.9,0.2-1.3,0.3c-3.4,0.9-6-0.3-8.1-3.6c-2.4-3.9,0-6.5,1.5-8.3
		c0.5-0.5,1-1.1,1.3-1.6c1.1-1.8,2.8-2.7,4.8-2.7c1.3,0,2.6,0.4,3.8,0.7l0.4,0.1c1.2,0.4,2.4,0.8,3.5,1.3c1.8,0.7,3.5,1.4,5.3,1.6
		c0.4,0.1,0.9,0.2,1.3,0.3c0.5,0.1,1,0.2,1.4,0.2c0.2,0,0.3,0,0.3-0.1c0.2-0.3,0-1-0.4-2c-0.2-0.5-0.4-1.1-0.5-1.7
		c0,0-0.2-0.3-0.4-0.4c-7.2-4.7-5.7-12.6-4.9-16.4c0.5-2.6,0.5-3.5,0.5-3.9c-0.2,0-1,0-1.8,0c-0.6,0-1.3,0.1-2.1,0.1
		c-0.3,0-0.6,0-0.9,0h-0.5l-11.7,0.6c-12.9,0.7-25.8,1.4-38.8,2.1c-1.7,0.1-2.8-0.3-3.6-1.1c-0.9-1-0.9-2.5-0.8-3.5
		c1.1-10.6,3.2-22.9,10.1-33.8c1.4-2.2,2.2-4.3,2.4-6.5c0.2-2.2,0.9-4.8,4.4-5.9c1-0.3,1.4-0.7,1.4-0.9c0-0.1,0-0.4-0.3-0.9
		c-2.5-3.9-3.7-8.3-4.7-12.5c-0.7-2.9-1.4-5.6-2.5-8.1C109.3,10.5,108.9,10.5,107.6,10.5z"/>
	<g>
		<path d="M202.8,79.2c-0.4-0.7-1-1.2-1.7-1.5c-0.3-0.1-0.5-0.1-0.7,0.2c-0.2,0.2-0.1,0.5,0.1,0.7c0,0.1,0.1,0.1,0.1,0.1
			c0.4,0.3,0.6,0.7,0.7,1.1c0.5,1.2,0.7,2.4,0.7,3.7c0,3.2-0.5,6.2-1.4,9.3c-0.4,1.3-1,2.6-1.7,3.8c-0.5,0.8-1.1,1.4-1.9,1.9
			c-1.4,0.9-2.9,0.6-3.9-0.7c-0.5-0.7-0.9-1.4-1.2-2.2c-0.5-1.6-0.8-3.2-0.8-4.8c-0.1-4.6,0.2-9.3,0.6-13.9c0.1-1.2,0.2-2.4-0.1-3.6
			c-0.2-0.9-0.5-1.6-1.2-2.2c-1-0.9-2.2-0.9-3.2,0c-0.5,0.4-0.9,0.9-1.2,1.4c-0.8,1.1-1.6,2.3-2.5,3.4c-1.9,2.7-3.7,5.6-5.3,8.5
			c-0.4,0.7-0.9,1.5-1.4,2.1c-0.3,0.4-0.7,0.8-1.1,1c-0.5,0.2-0.8,0.1-1-0.3c-0.2-0.2-0.3-0.5-0.3-0.7c-0.2-0.7-0.3-1.3-0.4-2
			c-0.2-1.8-0.1-3.7,0.1-5.5c0.3-3,0.9-5.8,1.9-8.6c0.7-2,1.6-3.9,2.8-5.6c0.6-0.9,1.4-1.7,2.4-2.3c0.9-0.5,1.7-0.5,2.6,0
			c0.4,0.2,0.7,0.5,1,0.9c0.2,0.2,0.4,0.4,0.7,0.3c0.3-0.1,0.4-0.4,0.3-0.7c0-0.2,0-0.4-0.1-0.5c-0.6-1.6-1.6-2.6-3.3-3
			c-0.9-0.2-1.7,0-2.6,0.2c-1.4,0.5-2.7,1.3-3.8,2.4c-1.5,1.4-2.6,3.2-3.5,5c-2.1,4.3-2.8,8.8-2.3,13.5c0,0.3,0,0.5-0.1,0.8
			c-1.2,2.7-2.3,5.5-3.6,8.2c-0.2,0.5-0.5,1-0.8,1.4c-0.1,0.1-0.1,0.3-0.4,0.2c0-0.1-0.1-0.2-0.1-0.3c-0.3-1.5-0.2-3,0-4.6
			c0.3-2.4,0.8-4.8,1.1-7.2c0.4-3.5,0.8-6.9,1-10.4c0.1-1.7,0.1-3.4-0.2-5c-0.2-1-0.5-2-1.2-2.8c-1.3-1.6-3.1-1.6-4.5-0.2
			c-0.5,0.5-0.8,1-1.2,1.6c-1.2,1.9-2.2,3.9-3,5.9c-2.2,5.3-3.9,10.8-5.2,16.4c0,0.2,0,0.4-0.3,0.6c0-0.5-0.1-1-0.1-1.5
			c-0.2-2.7-0.4-5.5-0.5-8.2c0-0.4,0.1-0.8,0.2-1.2c1.2-3.6,2.3-7.2,3-10.9c0.4-2.5,0.7-4.9,0.5-7.4c-0.1-0.8-0.2-1.7-0.6-2.5
			c-0.5-1.2-1.6-1.7-2.9-1.1c-0.4,0.2-0.8,0.5-1.1,0.8c-0.6,0.6-1,1.3-1.4,2.1c-0.6,1.4-0.9,2.8-1.2,4.3c-0.6,3.5-0.7,7-0.8,10.5
			c-0.1,3.8,0,7.6,0.3,11.4c0,0.4,0,0.7-0.2,1.1c-0.7,1.6-1.4,3.1-2.2,4.6c-0.7,1.4-1.5,2.9-2.4,4.2c-0.5,0.7-0.9,1.3-1.6,1.8
			c-0.8,0.6-1.2,0.5-1.3-0.5c-0.2-0.9-0.1-1.8-0.1-2.7c0.1-1.4,0.2-2.8,0.3-4.2c0.2-2.8,0.5-5.5,0.9-8.3c0.2-1.4,0.4-2.8,0.3-4.3
			c0-0.8-0.2-1.6-0.7-2.3c-0.8-1.1-2-1.2-3-0.4c-0.3,0.3-0.6,0.6-0.9,1c-0.6,0.8-1.2,1.7-1.8,2.5c-1.5,2.2-3,4.5-4.7,6.6
			c-0.6,0.7-1.2,1.4-1.9,2c-0.4,0.3-0.7,0.6-1.2,0.7c-0.6,0.2-0.9,0.1-1.1-0.5s-0.3-1.2-0.4-1.8c-0.2-1.7-0.1-3.5-0.1-5.2
			c0.1-2.4,0.4-4.8,1-7.1c0.6-2.2,1.5-4.3,2.8-6.1c0.8-1.1,1.7-2.1,2.9-2.9c2.1-1.3,5.4-0.9,7,1.4c0.3,0.4,0.6,0.9,0.8,1.3
			c0.1,0.3,0.3,0.5,0.6,0.4s0.4-0.3,0.3-0.7c0-0.1,0-0.2,0-0.3c-0.2-1-0.4-1.9-0.9-2.8c-1.2-2.5-3.2-3.8-5.9-3.9
			c-2,0-3.7,0.7-5.2,1.9c-1.8,1.4-3.2,3.2-4.3,5.2c-2,3.8-3.1,7.9-3.3,12.2c0,0.4-0.1,0.8-0.2,1.2c-0.4,0.9-0.7,1.8-1.1,2.7
			c-1.3,3.2-2.5,6.4-4,9.5c-0.4,0.8-0.9,1.7-1.4,2.4c-0.3,0.4-0.6,0.7-1,1s-0.7,0.3-0.9-0.2c-0.1-0.3-0.3-0.5-0.3-0.8
			c-0.2-0.7-0.3-1.4-0.4-2.1c-0.3-2.2-0.6-4.5-0.8-6.7c-0.4-4.7-0.6-9.3-0.6-14c0-1.4,0.1-2.9,0.3-4.3c0.1-0.7,0.2-1.3,0-2
			c-0.3-1.2-1.4-1.7-2.4-0.9c-0.5,0.4-0.9,1-1.1,1.6c-0.3,0.9-0.5,1.8-0.7,2.7c-0.3,1.7-0.3,3.5-0.4,5.2c0,0.3,0,0.6-0.3,0.9
			c-2.2,2.5-4.1,5.2-6.1,7.9c-0.1,0.2-0.2,0.4-0.5,0.5c-0.1-0.1-0.1-0.3-0.2-0.4C98,77,97.1,75.5,96.2,74c-1.2-2.1-2.5-4.2-3.7-6.3
			c-0.2-0.5-0.4-0.9-0.2-1.4c0.1-0.5,0.2-0.9,0.2-1.4c0.3-2.4,0.5-4.8,0.2-7.2c-0.2-1.5-0.6-3-1.3-4.3c-0.4-0.7-0.8-1.3-1.4-1.7
			c-0.8-0.6-1.7-0.7-2.6-0.3c-0.8,0.3-1.3,0.9-1.7,1.6c-0.5,0.8-0.7,1.8-0.8,2.7c-0.2,2.6,0.3,5.2,1.1,7.7c1,2.8,2.3,5.5,3.8,8.1
			c0.2,0.3,0.3,0.6,0.1,1c-1.1,3.6-2.3,7.1-3.8,10.6c-0.8,1.9-1.8,3.7-2.9,5.4c-0.3,0.5-0.7,1-1.2,1.4s-0.7,0.3-1-0.2
			c-0.3-0.7-0.5-1.5-0.6-2.3c-0.4-3.3-0.7-6.6-0.9-9.8c-0.2-3.3-0.3-6.5-0.3-9.8c0-1.9,0-3.8,0.2-5.7c0-0.4,0-0.8-0.1-1.3
			c-0.3-1.2-1.5-1.6-2.5-0.8c-0.4,0.3-0.7,0.8-0.9,1.3c-0.3,0.8-0.5,1.6-0.6,2.5c-0.2,2.3-0.2,4.5-0.2,6.8c0,0.6-0.1,1.1-0.2,1.6
			c-2.4,7.6-4.8,15.2-7.2,22.9c-0.5,1.8-1.1,3.6-1.8,5.3c-0.1,0.3-0.2,0.7-0.5,1c-0.1-0.2-0.1-0.4-0.1-0.6c0-1,0-2,0-3
			c0.1-1.9,0.2-3.7,0.3-5.6c0.1-2.9,0.5-5.7,0.9-8.6c0.5-3.8,1.3-7.6,2.1-11.4c0.4-1.8,0.7-3.6,0.8-5.4c0-0.9,0-1.8-0.3-2.6
			c-0.2-0.6-0.5-1.1-1.2-1.2c-0.7-0.1-1.1,0.3-1.4,0.8c-0.6,0.8-1.1,1.8-1.5,2.7c-2.3,4.8-4,9.7-5.6,14.7c-0.8,2.5-1.5,5.1-2.4,7.6
			c-0.3,0.9-0.6,1.7-1.2,2.5c-0.2,0.3-0.3,0.5-0.7,0.7c-0.2-0.6-0.3-1.1-0.3-1.7c-0.1-1.2-0.2-2.5-0.3-3.7c-0.1-1.6-0.3-3.2-0.4-4.8
			c-0.3-3.9-0.1-7.8,0-11.6c0.1-2,0.1-4.1,0.1-6.1c0-0.8-0.2-1.6-0.4-2.4c-0.2-0.6-0.5-1.2-1-1.7c-0.8-0.7-1.8-0.7-2.6-0.1
			c-0.3,0.2-0.5,0.4-0.7,0.6c-1.6,1.7-3.4,3.2-5.2,4.7c-0.5,0.4-1,0.9-1.6,1.3c-0.1-0.2-0.2-0.3-0.2-0.4c-0.7-1.3-1.5-2.5-2.4-3.6
			c-2-2.5-4.5-4.5-7.5-5.7c-2-0.8-4.2-1.1-6.4-0.7c-5.8,1.2-9.6,6.7-8.7,12.5c0.4,2.5,1.6,4.6,3.7,6.2c1.6,1.2,3.5,1.8,5.5,1.5
			c0.5-0.1,0.5,0,0.5,0.5c0,0.1,0,0.1,0,0.2c-0.2,4.9,0.3,9.8,1.7,14.5c1,3.3,2.5,6.2,4.8,8.7c0.8,0.9,1.7,1.7,2.8,2.3
			c2.3,1.3,4.5,0.9,6.4-0.9c0.8-0.8,1.4-1.8,1.9-2.9c1-2.2,1.5-4.5,1.9-6.9c0.4-2.9,0.5-5.8,0.3-8.8c-0.2-2.7-0.5-5.3-1.1-7.9
			s-1.4-5.1-2.5-7.4c-0.2-0.3-0.2-0.6,0.2-0.8c0.3-0.2,0.6-0.5,0.9-0.7c1.6-1.3,3.2-2.5,4.9-3.7c0.3-0.2,0.5-0.4,0.9-0.4
			c0.1,0.3,0.1,0.6,0.1,0.9c0,0.9,0,1.8,0,2.8c-0.1,3-0.3,6.1-0.4,9.1c-0.1,3.5-0.1,6.9,0.5,10.4c0.3,2.2,1,4.3,2.1,6.3
			c0.3,0.6,0.7,1.1,1.2,1.6c0.8,0.7,1.8,0.6,2.5-0.1c0.4-0.4,0.7-0.9,1-1.5c0.5-1,0.9-2,1.2-3.1c1.1-3.5,2.1-7.1,3.2-10.6
			c1.1-3.4,2.3-6.8,3.9-10c0.1-0.3,0.2-0.5,0.4-0.7c0.1,0.1,0,0.2,0,0.3c-0.4,1.7-0.9,3.4-1.3,5.1c-1.1,4.9-2,9.8-2.6,14.8
			c-0.3,2.8-0.5,5.6-0.1,8.4c0.3,2.1,0.9,4.2,1.8,6.2c0.2,0.4,0.4,0.7,0.6,1c0.6,0.7,1.4,0.7,2-0.1c0.3-0.4,0.5-0.8,0.7-1.2
			c0.5-1.2,0.9-2.4,1.2-3.6c2.2-7.8,4.6-15.6,7-23.4c0.1-0.2,0.1-0.3,0.3-0.5c0,0.8,0.1,1.6,0.1,2.3c0.1,2.1,0.2,4.1,0.6,6.2
			c0.4,2.7,1.5,5.2,3.1,7.4c0.3,0.4,0.6,0.7,0.9,1c0.9,0.7,1.8,0.7,2.7-0.1c0.4-0.3,0.7-0.8,1-1.2c0.9-1.2,1.6-2.5,2.3-3.9
			c2-3.8,3.4-7.8,4.7-11.9c0.1-0.2,0.1-0.4,0.2-0.6c0.2,0.1,0.3,0.2,0.3,0.4c0.7,1.1,1.4,2.3,2.1,3.5c1.1,1.9,2,3.8,2.8,5.8
			c0.2,0.4,0.2,0.7-0.1,1.1c-0.7,1.2-1.3,2.4-1.7,3.7c-0.7,2.1-1.1,4.1-0.9,6.3c0.1,1,0.4,2,1.1,2.8c1,1.2,2.4,1.5,3.8,0.8
			c0.7-0.4,1.3-0.9,1.7-1.5c0.6-0.8,1-1.6,1.3-2.5c0.7-2.1,0.7-4.3,0.4-6.5c-0.3-2.3-1.1-4.4-2-6.5c-0.1-0.3-0.1-0.6,0.1-0.9
			c1.8-2.6,3.6-5.1,5.6-7.6c0.1-0.2,0.2-0.3,0.4-0.4l0.1,0.1c0,0.3,0,0.5,0,0.8c0.1,3.7,0.2,7.3,0.7,10.9c0.4,2.6,1.2,5.1,2.5,7.4
			c0.4,0.7,0.9,1.4,1.5,1.9c1.1,0.9,2.3,0.9,3.3-0.1c0.6-0.5,1.1-1.2,1.5-1.9c0.8-1.3,1.5-2.8,2-4.2c1-2.7,2-5.4,3.1-8
			c0.1-0.2,0.1-0.5,0.4-0.7c0.1,0.4,0.1,0.7,0.2,1c0.2,1.4,0.6,2.8,1.3,4.2c0.3,0.7,0.8,1.4,1.4,1.9c0.9,0.8,1.9,0.9,3.1,0.4
			c0.6-0.3,1-0.6,1.5-1c0.6-0.6,1.2-1.3,1.7-2c1-1.4,2-2.8,3-4.2c1-1.5,2.1-3,3.3-4.3c0.2-0.2,0.4-0.5,0.8-0.7
			c-0.1,0.5-0.1,1-0.2,1.4c-0.4,2.3-0.8,4.5-1.1,6.8s-0.5,4.5-0.2,6.8c0.2,1.7,0.7,3.3,1.4,4.8c0.2,0.5,0.5,1,0.9,1.5
			c0.9,1,2,1.1,3,0.3c0.4-0.3,0.7-0.6,1.1-1c0.6-0.7,1.1-1.5,1.6-2.3c1.2-2,2.2-4.1,3.2-6.2c0.1-0.2,0.1-0.5,0.4-0.6
			c0,0.2,0.1,0.4,0.1,0.5c0.2,1.8,0.6,3.5,1.1,5.2c0.3,1,0.6,2,1,3c0.2,0.4,0.4,0.9,0.7,1.2c0.3,0.3,0.7,0.4,1,0.3
			c0.4-0.1,0.5-0.4,0.5-0.8s0.1-0.8,0.1-1.2c0.1-2.8,0.4-5.6,1-8.3c0.9-4.1,2.2-8.1,3.6-12c0.9-2.6,2.1-5.1,3.5-7.5
			c0.4-0.7,0.9-1.4,1.5-2c0.2-0.2,0.5-0.4,0.7-0.6c0.3-0.1,0.4-0.1,0.5,0.2c0.1,0.6,0.2,1.1,0.2,1.7c0.1,2,0,3.9-0.2,5.8
			c-0.3,3.1-0.7,6.2-0.9,9.3c-0.3,3.5,0,7,1,10.4c0.3,0.9,0.6,1.8,1.2,2.5c0.7,0.9,1.6,0.8,2.2-0.1c0.4-0.6,0.6-1.2,0.9-1.8
			c1-2.4,1.9-4.7,2.8-7.1c0.1-0.2,0.1-0.4,0.3-0.5c0.2,0.1,0.1,0.2,0.2,0.4c0.3,1.4,0.7,2.8,1.4,4.1c0.3,0.6,0.7,1.2,1.2,1.7
			c1,0.9,2.2,1,3.3,0.3c0.6-0.4,1-0.9,1.4-1.4c0.5-0.8,1-1.6,1.5-2.5c1-1.8,2-3.6,3.2-5.4c1-1.5,2.1-3,3.4-4.3
			c0.1-0.1,0.2-0.3,0.4-0.3c-0.4,2.3-0.6,4.5-0.8,6.8c-0.2,2.8-0.1,5.6,0.6,8.3c0.5,2,1.2,4,2.3,5.8c0.8,1.4,1.9,2.6,3.1,3.6
			c1.8,1.4,3.9,1.5,5.9,0.2c0.5-0.3,1-0.7,1.4-1.2c0.6-0.7,1.1-1.6,1.6-2.4c0.8-1.7,1.5-3.4,1.9-5.2c0.7-2.5,1.1-5,1.1-7.6
			C203.6,81.8,203.4,80.5,202.8,79.2z M29.9,66.8c-0.7,0.9-1.2,2-1.5,3.1c-0.4,1.3-0.6,2.6-0.8,3.9c0,0.3-0.2,0.4-0.5,0.5
			c-1.8,0.1-3.3-0.4-4.6-1.7c-1.5-1.5-2.2-3.4-2.3-5.5c-0.1-1.7,0.3-3.3,0.9-4.8c1.9-4.5,6.6-6.4,11.2-4.8c3.1,1.1,5.6,3.1,7.6,5.7
			c0.7,0.9,1.3,1.9,1.9,2.9c0.1,0.2,0.1,0.4-0.1,0.6c-2.8,2.3-5.7,4.5-9.1,6.1c-0.2,0.1-0.4,0.3-0.8,0.2c0.3-1.7,0.6-3.3,1.4-4.8
			c0.1-0.2,0.2-0.5,0.3-0.7c0.3-1.1-0.6-2.1-1.7-1.9C31.1,65.7,30.4,66.2,29.9,66.8z M45.5,77.4c0.6,3.2,0.8,6.5,0.7,9.8
			c-0.1,2.8-0.5,5.7-1.3,8.4c-0.4,1.2-0.9,2.3-1.6,3.3c-0.6,0.8-1.3,1.5-2.3,1.8c-0.8,0.3-1.5,0.1-2.2-0.3c-0.6-0.4-1.1-0.9-1.5-1.4
			c-1-1.3-1.7-2.8-2.3-4.3c-1.3-3.1-2.3-6.3-2.8-9.6c-0.5-3.4-0.6-6.7-0.4-10.1c0-0.3,0.1-0.5,0.4-0.7c3.1-1.4,5.8-3.4,8.5-5.4
			c0.6-0.5,1.2-0.9,1.8-1.4c0.3,0.3,0.3,0.5,0.4,0.8C44.1,71.1,45,74.2,45.5,77.4z M92.1,64.7c0,0,0,0.1-0.1,0.2
			c-0.7-1.3-1.2-2.7-1.6-4c-0.6-1.8-1-3.7-1-5.6c0-0.6,0-1.3,0.2-1.9c0.1-0.5,0.3-0.6,0.7-0.2c0.3,0.3,0.6,0.6,0.8,1
			c0.7,1.2,1.1,2.4,1.3,3.8C92.5,60.2,92.4,62.5,92.1,64.7z M98.6,94.4c-0.1,0.4-0.3,0.7-0.6,1.1c-0.7,0.8-1.5,0.8-2.1,0
			c-0.6-0.7-0.8-1.6-0.9-2.5c-0.2-1.5,0-3,0.4-4.4c0.4-1.3,0.8-2.5,1.4-3.7c0.1-0.2,0.1-0.4,0.4-0.5c0.8,2.5,1.5,5,1.7,7.5
			C98.9,92.7,98.8,93.5,98.6,94.4z M151.4,71c0-3.8,0.2-7.6,0.6-11.4c0.2-1.5,0.4-3,0.8-4.5c0.1-0.3,0.1-0.7,0.4-1
			c0.4,0.6,0.5,1.3,0.6,1.9c0.3,2,0.2,4,0,6c-0.4,3.1-1.2,6.1-2.2,9.1c0,0.1-0.1,0.2-0.1,0.3C151.4,71.3,151.4,71.2,151.4,71z"/>
		<path d="M24.7,93.4c-0.3,0.4-0.8,0.6-1.2,0.9c-1.7,1-3.5,1.7-5.6,1.7c-1.9,0-3.2-0.8-3.9-2.5c-0.1-0.3-0.2-0.5-0.3-0.8
			c-0.4-0.9-0.6-1.9-0.7-2.9c-0.4-3.6-0.6-7.2-0.8-10.8c-0.2-4.1-0.2-8.3-0.1-12.4c0.1-5.6,0.2-11.2,0-16.9c-0.1-2.7-0.1-5.4-0.4-8
			c-0.1-0.9-0.2-1.8-0.5-2.7c-0.2-0.6-0.5-1.1-1.1-1.5c-0.7-0.4-1.4-0.3-1.8,0.4C8.1,38.2,8,38.6,7.9,39c-0.2,1.4-0.1,2.9-0.1,4.3
			C7.9,48.8,8,54.3,8,59.8c0,1.9-0.1,3.9-0.1,5.8C7.8,71.3,7.8,77,8.3,82.7c0.2,2.7,0.7,5.4,1.7,7.9c0.5,1.3,1.1,2.6,2,3.7
			c1.7,2.1,3.8,2.9,6.4,2.6c1.2-0.2,2.3-0.6,3.5-0.9s2.2-1,3.1-1.8c0.1-0.1,0.2-0.2,0.3-0.3c0.1-0.2,0.1-0.4-0.1-0.5
			C25.1,93.2,24.9,93.2,24.7,93.4z"/>
		<path d="M108.2,55.8c1.2,0,2.1-1,2.2-2.2c-0.1-1.2-0.9-2.2-2.1-2.2s-2.1,1-2.1,2.2C106.1,54.8,107,55.7,108.2,55.8z"/>
		<path d="M77.4,56.4c1,0,1.9-0.9,1.9-2s-0.9-2.1-1.9-2.1s-1.9,0.9-1.9,2.1S76.4,56.4,77.4,56.4z"/>
	</g>
</g>
</svg>
