<?xml version="1.0" encoding="utf-8"?>
<!-- Generator: Adobe Illustrator 22.0.1, SVG Export Plug-In . SVG Version: 6.00 Build 0)  -->
<svg version="1.1" id="Layer_1" xmlns="http://www.w3.org/2000/svg" xmlns:xlink="http://www.w3.org/1999/xlink" x="0px" y="0px"
	 viewBox="0 0 300 300" style="enable-background:new 0 0 300 300;" xml:space="preserve">
<style type="text/css">
	.st0{fill:none;}
	.st1{font-family:'BodoniOrnamentsITCTT';}
	.st2{font-size:11px;}
	.st3{fill:#C0B7B1;stroke:#000000;stroke-width:19;stroke-miterlimit:10;}
	.st4{font-size:62px;}
	.st5{font-family:'SukhumvitSet-Bold';}
	.st6{font-size:90px;}
	.st7{font-family:'MicrosoftTaiLe';}
	.st8{font-size:34px;}
	.st9{font-size:10px;}
</style>
<rect x="-0.4" y="-1.4" class="st0" width="299.9" height="301"/>
<text transform="matrix(1 0 0 1 9.0234 7.1401)"><tspan x="0" y="0" class="st1 st2">Lorem ipsum dolor sit amet, </tspan><tspan x="-5.9" y="13.2" class="st1 st2">consectetuer adipiscing </tspan><tspan x="12.7" y="26.4" class="st1 st2">elit, sed diam nonummy </tspan><tspan x="-1.8" y="39.6" class="st1 st2">nibh euismod tincidunt ut </tspan><tspan x="-9.1" y="52.8" class="st1 st2">laoreet dolore magna ali</tspan><tspan x="279.6" y="52.8" class="st1 st2">-</tspan><tspan x="10.8" y="66" class="st1 st2">quam erat volutpat. Ut wisi </tspan><tspan x="-3.3" y="79.2" class="st1 st2">enim ad minim veniam, quis </tspan><tspan x="-2" y="92.4" class="st1 st2">nostrud exerci tation ul</tspan><tspan x="272.5" y="92.4" class="st1 st2">-</tspan><tspan x="-9.3" y="105.6" class="st1 st2">lamcorper suscipit lobortis </tspan><tspan x="2.3" y="118.8" class="st1 st2">nisl ut aliquip ex ea com</tspan><tspan x="268.3" y="118.8" class="st1 st2">-</tspan><tspan x="3.7" y="132" class="st1 st2">modo consequat. Duis autem </tspan><tspan x="14.8" y="145.2" class="st1 st2">vel eum iriure dolor in </tspan><tspan x="11.3" y="158.4" class="st1 st2">hendrerit in vulputate </tspan><tspan x="17.6" y="171.6" class="st1 st2">velit esse molestie </tspan><tspan x="20.7" y="184.8" class="st1 st2">consequat, vel illum </tspan><tspan x="5.6" y="198" class="st1 st2">dolore eu feugiat nulla </tspan><tspan x="1.6" y="211.2" class="st1 st2">facilisis at vero eros et </tspan><tspan x="20.1" y="224.4" class="st1 st2">accumsan et iusto odio </tspan><tspan x="-6.4" y="237.6" class="st1 st2">dignissim qui blandit prae</tspan><tspan x="276.9" y="237.6" class="st1 st2">-</tspan><tspan x="-4.3" y="250.8" class="st1 st2">sent luptatum zzril dele</tspan><tspan x="274.8" y="250.8" class="st1 st2">-</tspan><tspan x="9.7" y="264" class="st1 st2">nit augue duis dolore te </tspan><tspan x="2.9" y="277.2" class="st1 st2">feugait nulla facilisi.</tspan><tspan x="0" y="290.4" class="st1 st2">Lorem ipsum dolor sit amet, </tspan></text>
<rect x="8.6" y="7.5" class="st3" width="281" height="282.7"/>
<rect x="112.9" y="17.4" class="st0" width="70.4" height="70.4"/>
<text transform="matrix(1 0 0 1 113.8772 65.4089)" class="st1 st4">q</text>
<rect x="25.9" y="93.5" class="st0" width="247.6" height="80.1"/>
<text transform="matrix(1 0 0 1 57.5151 154.1422)" class="st5 st6">MPG</text>
<rect x="45.7" y="192.2" class="st0" width="206.3" height="68"/>
<text transform="matrix(1 0 0 1 49.0765 217.3682)"><tspan x="0" y="0" class="st7 st8">Mission Plant </tspan><tspan x="48.3" y="40.8" class="st7 st8">Gallery</tspan></text>
<path id="SVGID_x5F_1_x5F_" class="st0" d="M128.7,255.3h231"/>
<text class="st1 st2"><textPath  xlink:href="#SVGID_x5F_1_x5F_" startOffset="88.5254%">
L</textPath>
</text>
<rect x="18.2" y="169.9" class="st0" width="261" height="8.9"/>
<text transform="matrix(1 0 0 1 26.4476 177.6885)" class="st1 st9">[2\   [2\   [2\   [2\   [2\</text>
</svg>
